<svg xmlns:xlink="http://www.w3.org/1999/xlink" width="264.6297571691396" xmlns="http://www.w3.org/2000/svg" id="screenshot" version="1.1" viewBox="4798.725329624326 101.61822436685712 264.6297571691396 319.7765834446562" height="319.7765834446562" style="-webkit-print-color-adjust: exact;"><g id="shape-2aa766b0-50fb-11ec-bb4a-81ae7de117f5"><path d="M5016.9164566386335,388.5408830712272C5001.719757784558,379.42098160087744,5005.990294070693,378.5505580380766,4999.560167745473,372.58937168866873C4994.75318218641,368.13295260693053,5004.496916623155,363.0677451975987,5010.486330313413,348.95351897734076C5010.963596490961,347.82882745567304,5014.977479261153,344.52364781774827,5018.527909310502,340.68241741141287C5019.66340088285,339.45392263944996,5034.37390657524,328.61431721237614,5033.965773717933,319.8291468009015C5033.792912537911,316.10826303270846,5031.098946321279,290.80798907966346,5022.713777026565,271.6051632328363C5020.790458261899,267.20058247987276,5018.095157239754,260.9589616769458,5007.0801575496025,257.64038133242275C4997.051575742149,254.61898728740903,4994.208331593962,256.2315105132111,4990.290918122268,254.3131525937613C4983.496497567348,250.98592385510005,4979.972144975931,248.05184781981689,4971.763365337056,240.74235580585355C4971.397470953894,240.4165458573201,4967.820633019727,242.82119488160947,4962.83900782258,246.416408930158C4961.347114859893,247.49310063740563,4950.392393212072,245.167519940519,4948.697028441691,246.416408930158C4947.3250633312855,247.42706584039342,4950.897957821525,294.2696540151177,4959.222245268597,290.01874689076726C4968.662627903075,285.1978909635541,4973.905621670463,300.1305622039712,4971.18228151201,303.88384067585594C4969.166523482943,306.66193693095306,4965.6948705400655,308.04721272801953,4966.4041884060725,311.70007358917724C4966.992077999261,314.727600572518,4963.566920536778,320.6884321668938,4961.819119436906,322.6916115413103C4961.307137296539,323.27840145906873,4960.939085030772,322.7750576460194,4960.857994064938,322.6916115413103C4960.596708120513,322.4227370242388,4958.2309919606,317.98554700197815,4959.222245268597,313.86661394918474C4959.300025028788,313.5434174236332,4959.694238767341,308.628784003635,4960.857994064938,308.04721272801953C4962.863614896969,307.04493031685274,4963.543238774097,310.21921013693463,4963.6948705400655,309.2543747692962C4963.818422349373,308.4682126178873,4962.354421285432,309.8996951309862,4960.857994064938,309.2543747692962C4959.2650231528,308.5674208358844,4960.1689519379925,305.8019210688544,4959.919411905987,304.88384067585594C4959.013683234731,301.551582767735,4959.714483149233,298.2369223049461,4959.222245268597,297.45710306932233C4957.334330172487,294.4662066549381,4947.236883538848,250.49223555077697,4950.332777238033,248.11074183398296C4952.048250802948,246.791126267967,4962.414518343799,249.38521589794755,4963.6948705400655,248.11074183398296C4972.181776526749,239.66279946713212,4964.327267566881,233.23637739460014,4963.6948705400655,232.56353971960675C4958.86990906193,227.43003066560277,4953.947312965788,222.38441926372263,4948.697028441691,220.50533087069584C4940.868428000956,217.70345753329627,4918.395166130544,216.44573697179567,4902.146396610793,215.85626338977863C4891.4831416134575,215.46942135157997,4874.518107472266,215.85626338977863,4856.008154340298,222.270330389121C4848.05433153186,225.02648820073887,4839.88415123473,248.07105558355147,4839.721645934878,248.11074183398296C4839.563451783768,248.14937523673007,4840.42450689726,237.1591814036433,4845.997091677236,228.90129657972102C4847.7780208337235,226.2621787493954,4850.0401679740025,223.90212872200402,4852.9040546051765,222.270330389121C4866.73338578425,214.39059125515553,4890.6784134565105,212.5886910557399,4898.010003047357,212.88283326068188C4913.424050341735,213.50124237947762,4929.845253961263,215.85626332072025,4938.314511796265,215.85626338977863C4964.581401422771,215.85626338977863,4977.156158375456,254.3131525937613,4999.560167745473,254.3131525937613C5033.965773717933,254.31315199327037,5032.646593851677,315.008557658128,5033.965773717933,314.6719793756131C5036.490636033841,314.0277807764587,5035.738825908633,325.97247449791644,5039.291244533258,322.4819362904084C5041.991062827194,319.8291468009015,5041.908748848644,320.0341390649123,5041.991062827194,319.8291468009015C5042.892204846543,317.58496977539266,5045.044103186456,313.1525765277911,5045.344588371969,317.128366387358C5045.81470229124,323.3485537482936,5053.305272031059,277.1561232129909,5055.175131834148,271.6051632328363C5062.682062246743,249.31971155068572,5065.9433821451685,228.4460497038309,5059.391480909077,212.88283326068188C5055.846726785988,204.46271625316706,5062.414086811867,218.97140264872053,5053.34671399792,192.8763481574772C5049.194712749765,180.9272751273354,5037.739374838704,156.11769607995268,5022.713777026565,143.54483609694944C5020.223926731216,141.4614222099633,5008.796563851653,137.68414812880803,5010.486330313413,133.5440598507313C5011.932085640447,130.0018220220843,5007.012229326133,139.70063777831206,5010.486330313413,133.5440598507313C5019.619184395471,117.35940456713502,5043.287528390485,91.76978560940711,5022.713777026565,115.41096976231324C4997.513872419682,144.36804181848288,4981.092733660594,122.16299884426348,4974.405922456442,118.05162237156947C4946.441091667979,100.85748480568054,4953.169653713159,94.04331517370997,4958.657064685105,115.41096976231302C4958.657064685105,115.41096976231302,4955.729161254667,115.56375230988101,4953.169653713159,115.41096976231302C4921.367117962151,113.51260753740621,4920.91198733813,112.72040946882453,4906.136582919071,118.05162237156924C4891.46613275705,123.34496568371924,4896.71807859496,120.30097804088359,4874.518107472266,133.54405985073072C4860.748505130342,141.75812325177515,4840.672427358235,157.20229673869585,4833.388831578986,167.21856285039144C4822.800246651819,181.7797887533493,4808.824549621891,197.65455676099168,4799.211409147376,222.270330389121C4797.935328553413,225.53791095922668,4823.035356280356,209.65441319195543,4821.93114598106,212.88283326068165C4817.490612915389,225.8657823186702,4814.086611596835,232.44087740715122,4813.897617562463,240.74235580585355C4813.775158473464,246.12131649861635,4828.075182184308,207.2505233971567,4828.019715369099,212.88283326068165C4827.944134829991,220.5575665999695,4826.785421844514,226.24356139424924,4821.93114598106,260.28788061006026C4821.078656513843,266.2666144864288,4839.721645899061,242.85882983281817,4839.721645934878,248.11074183398296C4839.721645934878,252.89453705783762,4839.721645934878,286.612061767127,4839.721645934878,286.612061767127C4839.721645934878,286.612061767127,4846.721052341372,290.6103586294182,4842.765930628897,292.45710306932233C4833.388831578986,296.8355033937844,4848.5212904657255,290.32181025568934,4850.256555327538,292.45710306932233C4850.5315418135415,292.7954817689258,4853.603675610817,292.89478351966363,4856.244262862497,293.04569217664175C4857.318214938662,293.1070681699441,4862.470930234922,294.02683411477733,4862.268657365563,295.04108703222664C4862.144834871515,295.6619677575137,4859.527668876275,297.1354326255961,4858.0928754461665,297.8347155834624C4856.456279493199,298.6323521077992,4854.04791414401,299.72856636762344,4853.9040546051765,299.8347155834624C4853.645580535846,300.0254350886255,4854.9040546051765,296.89871345828453,4854.36535323699,295.7653775713279C4853.641726040583,294.2429892474212,4851.442161571598,292.8276107059289,4851.2021727484625,293.7653775713279C4850.84201636165,295.17270446889654,4853.780681340466,299.9256444946793,4854.109752363615,300.99215479771306C4855.12065854673,304.268474448633,4855.758311159134,307.13843604966587,4856.008154340298,307.419966110592C4856.984963879605,308.5206615461575,4858.129114279229,339.9820495820927,4858.913961560946,343.3080496986695C4864.263778562001,365.979328018602,4872.371643944993,336.32135458528114,4880.606676860305,343.3080496986695C4885.480403066394,347.4429742378527,4883.07826940219,345.1536536709882,4888.975826681442,353.85278869573654C4890.053921023253,355.44302137213185,4891.567572585273,356.42548995942025,4892.715770670602,359.26571389874516C4894.360505798432,363.33418963268787,4898.295720016421,361.078767718514,4898.010003047357,362.3870264705074C4897.18272433467,366.17502216168873,4898.6504647675665,364.4842496485817,4902.146396610793,369.48068443692136C4903.2851335733485,371.1081832640225,4908.762019993657,377.4886414070645,4916.241049630265,377.4886414070645C4923.788237827126,377.4886414327939,4938.314511774219,376.5381004762005,4938.314511796265,383.4498277564726C4938.314511796265,386.4889721633124,4938.314511796265,388.540883071227,4938.314511796265,383.4498277564726C4938.314511711093,368.45413062638204,4938.233949311594,413.27992692792577,4938.314511796265,420.9558036080821" style="fill: rgb(38, 47, 45); fill-opacity: 1; stroke-width: 0.363683; stroke: none; stroke-opacity: 1;"/></g></svg>